<svg width="32" height="32" viewBox="0 0 32 32" fill="none" xmlns="http://www.w3.org/2000/svg">
<path d="M10.6638 3.19995C6.54754 3.19995 3.19922 6.55137 3.19922 10.6687V21.3354C3.19922 25.4516 6.55064 28.8 10.668 28.8H21.3346C25.4509 28.8 28.7992 25.4485 28.7992 21.3312V10.6645C28.7992 6.54827 25.4478 3.19995 21.3305 3.19995H10.6638ZM23.4659 7.46662C24.0547 7.46662 24.5326 7.94448 24.5326 8.53328C24.5326 9.12208 24.0547 9.59995 23.4659 9.59995C22.8771 9.59995 22.3992 9.12208 22.3992 8.53328C22.3992 7.94448 22.8771 7.46662 23.4659 7.46662ZM15.9992 9.59995C19.5288 9.59995 22.3992 12.4704 22.3992 16C22.3992 19.5296 19.5288 22.4 15.9992 22.4C12.4696 22.4 9.59922 19.5296 9.59922 16C9.59922 12.4704 12.4696 9.59995 15.9992 9.59995ZM15.9992 11.7333C14.8676 11.7333 13.7824 12.1828 12.9822 12.983C12.1821 13.7831 11.7326 14.8684 11.7326 16C11.7326 17.1315 12.1821 18.2168 12.9822 19.0169C13.7824 19.8171 14.8676 20.2666 15.9992 20.2666C17.1308 20.2666 18.2161 19.8171 19.0162 19.0169C19.8164 18.2168 20.2659 17.1315 20.2659 16C20.2659 14.8684 19.8164 13.7831 19.0162 12.983C18.2161 12.1828 17.1308 11.7333 15.9992 11.7333Z" fill="white"/>
</svg>
