<svg width="32" height="32" viewBox="0 0 32 32" fill="none" xmlns="http://www.w3.org/2000/svg">
<path d="M8.96055 2.56006C5.43329 2.56006 2.56055 5.4328 2.56055 8.96006V23.0401C2.56055 26.5673 5.43329 29.4401 8.96055 29.4401H23.0405C26.5678 29.4401 29.4405 26.5673 29.4405 23.0401V8.96006C29.4405 5.4328 26.5678 2.56006 23.0405 2.56006H8.96055ZM8.32055 10.2401H23.6805C23.7957 10.2401 23.9044 10.2531 24.0068 10.2851L17.7155 16.5701C16.7683 17.5173 15.2265 17.5173 14.2793 16.5701L7.9943 10.2851C8.0967 10.2531 8.20535 10.2401 8.32055 10.2401ZM7.08555 11.1938L11.898 16.0001L7.08555 20.8063C7.05355 20.7039 7.04055 20.5953 7.04055 20.4801V11.5201C7.04055 11.4049 7.05355 11.2962 7.08555 11.1938ZM24.9155 11.1938C24.9475 11.2962 24.9605 11.4049 24.9605 11.5201V20.4801C24.9605 20.5953 24.9475 20.7039 24.9155 20.8063L20.0968 16.0001L24.9155 11.1938ZM12.8005 16.9026L13.3705 17.4788C14.0937 18.202 15.0471 18.5601 15.9943 18.5601C16.9479 18.5601 17.8948 18.202 18.618 17.4788L19.1943 16.9026L24.0068 21.7151C23.9044 21.7471 23.7957 21.7601 23.6805 21.7601H8.32055C8.20535 21.7601 8.0967 21.7471 7.9943 21.7151L12.8005 16.9026Z" fill="white"/>
</svg>
